<?xml version="1.0" encoding="utf-8"?>
<!-- Generator: Adobe Illustrator 16.0.0, SVG Export Plug-In . SVG Version: 6.00 Build 0)  -->
<!DOCTYPE svg PUBLIC "-//W3C//DTD SVG 1.1//EN" "http://www.w3.org/Graphics/SVG/1.1/DTD/svg11.dtd">
<svg version="1.1" id="Layer_1" xmlns="http://www.w3.org/2000/svg" xmlns:xlink="http://www.w3.org/1999/xlink" x="0px" y="0px"
	 width="620.2px" height="159.992px" viewBox="0 0 620.2 159.992" enable-background="new 0 0 620.2 159.992" xml:space="preserve">
<g>
	<g>
		<path fill="#231F20" d="M344.415,86.148c-1.979,1.023-6.125,2.045-11.357,2.045c-12.125,0-21.186-7.659-21.186-21.821
			c0-13.528,9.123-22.591,22.463-22.591c5.295,0,8.742,1.15,10.209,1.916l-1.406,4.53c-2.039-1.021-5.043-1.788-8.615-1.788
			c-10.08,0-16.779,6.446-16.779,17.739c0,10.592,6.063,17.294,16.463,17.294c3.445,0,6.893-0.703,9.125-1.785L344.415,86.148z"/>
		<path fill="#231F20" d="M358.329,73.964l-4.465,13.528h-5.744l14.678-43.009h6.635l14.676,43.009h-5.932l-4.596-13.528H358.329z
			 M372.497,69.626l-4.275-12.38c-0.959-2.809-1.594-5.36-2.236-7.851h-0.125c-0.639,2.49-1.277,5.17-2.172,7.788l-4.209,12.442
			H372.497z"/>
		<path fill="#231F20" d="M426.103,68.604c-0.32-5.998-0.703-13.271-0.703-18.567h-0.129c-1.531,4.975-3.254,10.399-5.422,16.336
			l-7.596,20.862h-4.209l-7.021-20.482c-2.041-6.125-3.699-11.611-4.912-16.716h-0.129c-0.129,5.359-0.443,12.506-0.83,19.014
			l-1.146,18.442h-5.295l2.998-43.009h7.082l7.34,20.803c1.785,5.295,3.189,10.02,4.338,14.484h0.129
			c1.146-4.338,2.676-9.061,4.594-14.484l7.658-20.803h7.082l2.68,43.009h-5.488L426.103,68.604z"/>
		<path fill="#231F20" d="M440.849,45.122c2.424-0.575,6.314-0.957,10.145-0.957c5.553,0,9.125,0.957,11.74,3.126
			c2.236,1.659,3.639,4.212,3.639,7.595c0,4.209-2.809,7.848-7.273,9.443v0.19c4.082,0.956,8.869,4.34,8.869,10.72
			c0,3.703-1.469,6.573-3.703,8.616c-2.934,2.742-7.783,4.02-14.803,4.02c-3.83,0-6.764-0.256-8.613-0.512V45.122z M446.397,62.733
			h5.041c5.809,0,9.252-3.128,9.252-7.274c0-4.978-3.762-7.02-9.377-7.02c-2.553,0-4.02,0.191-4.916,0.383V62.733z M446.397,83.281
			c1.152,0.191,2.684,0.254,4.66,0.254c5.744,0,11.039-2.105,11.039-8.358c0-5.807-5.039-8.295-11.104-8.295h-4.596V83.281z"/>
		<path fill="#231F20" d="M511.872,65.54c0,14.738-8.998,22.653-19.975,22.653c-11.42,0-19.332-8.87-19.332-21.887
			c0-13.655,8.422-22.589,19.91-22.589C504.28,43.718,511.872,52.714,511.872,65.54z M478.437,66.179
			c0,9.254,4.977,17.485,13.783,17.485c8.805,0,13.781-8.103,13.781-17.868c0-8.612-4.467-17.547-13.719-17.547
			S478.437,56.798,478.437,66.179z"/>
		<path fill="#231F20" d="M518.771,45.122c3.381-0.575,7.4-0.957,11.803-0.957c7.977,0,13.658,1.913,17.422,5.36
			c3.895,3.509,6.125,8.485,6.125,15.44c0,7.023-2.23,12.764-6.189,16.722c-4.084,4.02-10.721,6.188-19.078,6.188
			c-4.02,0-7.275-0.191-10.082-0.512V45.122z M524.319,83.152c1.404,0.191,3.447,0.254,5.619,0.254
			c11.93,0,18.313-6.636,18.313-18.248c0.064-10.147-5.682-16.591-17.422-16.591c-2.871,0-5.041,0.255-6.51,0.574V83.152z"/>
		<path fill="#231F20" d="M567.017,47.93c0,1.913-1.34,3.445-3.572,3.445c-2.043,0-3.383-1.532-3.383-3.445
			c0-1.914,1.402-3.509,3.512-3.509C565.614,44.421,567.017,45.952,567.017,47.93z M560.765,87.492V56.607h5.613v30.885H560.765z"/>
		<path fill="#231F20" d="M582.524,73.964l-4.469,13.528h-5.74l14.672-43.009h6.639l14.678,43.009h-5.936l-4.594-13.528H582.524z
			 M596.688,69.626l-4.275-12.38c-0.955-2.809-1.594-5.36-2.23-7.851h-0.131c-0.637,2.49-1.275,5.17-2.166,7.788l-4.215,12.442
			H596.688z"/>
	</g>
	<g>
		<path fill="#231F20" d="M301.812,102.094l1.899,5.736c0.202,0.668,0.404,1.395,0.546,2h0.061c0.141-0.586,0.344-1.332,0.545-2.039
			l1.717-5.697h1.779l-2.344,6.748c-1.07,3.09-1.879,5.012-3.071,6.184c-0.828,0.805-1.656,1.148-2.061,1.25l-0.485-1.434
			c0.444-0.184,1.011-0.504,1.516-0.969c0.444-0.445,0.97-1.113,1.293-1.898c0.081-0.203,0.142-0.324,0.142-0.445
			c0-0.102-0.041-0.242-0.102-0.426l-3.272-9.01H301.812z"/>
		<path fill="#231F20" d="M317.562,106.924c0,3.656-2.283,5.148-4.383,5.148c-2.383,0-4.242-1.836-4.242-5.027
			c0-3.355,1.98-5.133,4.383-5.133C315.804,101.912,317.562,103.83,317.562,106.924z M310.675,107.002
			c0,1.98,0.949,3.758,2.584,3.758c1.596,0,2.566-1.797,2.566-3.797c0-1.598-0.668-3.738-2.566-3.738
			C311.382,103.225,310.675,105.268,310.675,107.002z"/>
		<path fill="#231F20" d="M327.009,109.205c0,1.031,0.041,1.898,0.082,2.668h-1.496l-0.102-1.414h-0.039
			c-0.404,0.688-1.354,1.613-2.889,1.613c-1.598,0-3.072-0.988-3.072-4.121v-5.857h1.697v5.576c0,1.758,0.484,2.988,1.92,2.988
			c1.111,0,1.818-0.848,2.061-1.535c0.08-0.262,0.141-0.563,0.141-0.906v-6.123h1.697V109.205z"/>
		<path fill="#231F20" d="M329.628,104.982c0-1.051-0.041-2.041-0.08-2.889h1.494l0.08,1.818h0.063c0.402-1.193,1.414-2,2.504-2
			c0.182,0,0.303,0,0.445,0.039v1.656c-0.143-0.039-0.303-0.039-0.506-0.039c-1.172,0-2.02,0.93-2.242,2.184
			c-0.041,0.262-0.061,0.543-0.061,0.848v5.273h-1.697V104.982z"/>
		<path fill="#231F20" d="M347.118,110.498c0,2.363-0.426,3.598-1.254,4.406c-0.848,0.805-2.08,1.129-3.271,1.129
			c-1.072,0-2.223-0.262-2.93-0.707l0.424-1.313c0.566,0.344,1.475,0.668,2.545,0.668c1.658,0,2.809-0.891,2.809-3.273v-1.07h-0.041
			c-0.465,0.867-1.434,1.516-2.727,1.516c-2.223,0-3.777-2.043-3.777-4.789c0-3.396,2-5.152,4-5.152
			c1.494,0,2.283,0.807,2.688,1.535h0.039l0.082-1.354h1.494c-0.041,0.686-0.08,1.514-0.08,2.787V110.498z M345.421,105.811
			c0-0.281-0.021-0.543-0.082-0.766c-0.281-0.932-0.988-1.76-2.182-1.76c-1.516,0-2.545,1.455-2.545,3.678
			c0,2.102,0.93,3.555,2.545,3.555c0.91,0,1.777-0.543,2.143-1.695c0.1-0.305,0.121-0.629,0.121-0.93V105.811z"/>
		<path fill="#231F20" d="M357.19,109.205c0,1.031,0.041,1.898,0.082,2.668h-1.496l-0.102-1.414h-0.039
			c-0.404,0.688-1.354,1.613-2.889,1.613c-1.598,0-3.072-0.988-3.072-4.121v-5.857h1.697v5.576c0,1.758,0.484,2.988,1.92,2.988
			c1.111,0,1.818-0.848,2.061-1.535c0.08-0.262,0.141-0.563,0.141-0.906v-6.123h1.697V109.205z"/>
		<path fill="#231F20" d="M361.708,99.406c0,0.605-0.404,1.07-1.07,1.07c-0.605,0-1.029-0.465-1.029-1.07
			c0-0.627,0.443-1.092,1.049-1.092C361.284,98.314,361.708,98.779,361.708,99.406z M359.829,111.873v-9.779h1.697v9.779H359.829z"
			/>
		<path fill="#231F20" d="M371.808,97.629v11.779c0,0.809,0.039,1.816,0.08,2.465h-1.494l-0.102-1.555h-0.061
			c-0.465,0.969-1.516,1.754-2.93,1.754c-2.162,0-3.799-1.938-3.799-4.969c0-3.314,1.84-5.191,3.961-5.191
			c1.271,0,2.182,0.584,2.605,1.373h0.041v-5.656H371.808z M370.11,106.014c0-0.223-0.021-0.504-0.061-0.727
			c-0.223-1.094-1.07-2.002-2.242-2.002c-1.678,0-2.586,1.658-2.586,3.76c0,2,0.848,3.637,2.545,3.637
			c0.969,0,1.92-0.629,2.262-1.98c0.061-0.223,0.082-0.465,0.082-0.727V106.014z"/>
		<path fill="#231F20" d="M375.437,107.244c0.02,2.586,1.453,3.477,3.029,3.477c1.092,0,1.818-0.203,2.385-0.465l0.283,1.23
			c-0.586,0.285-1.598,0.566-2.91,0.566c-2.809,0-4.445-1.957-4.445-4.93c0-3.01,1.637-5.211,4.223-5.211
			c2.828,0,3.637,2.586,3.637,4.484c0,0.383-0.02,0.648-0.061,0.848H375.437z M380.001,106.014c0.021-1.375-0.525-2.85-2.162-2.85
			c-1.574,0-2.262,1.596-2.383,2.85H380.001z"/>
		<path fill="#231F20" d="M389.507,99.77v2.324h2.344v1.293h-2.344v5.436c0,1.23,0.385,1.816,1.252,1.816
			c0.404,0,0.668-0.039,0.91-0.102l0.061,1.293c-0.324,0.121-0.809,0.223-1.455,0.223c-0.748,0-1.395-0.242-1.797-0.707
			c-0.445-0.504-0.646-1.313-0.646-2.523v-5.436h-1.416v-1.293h1.416v-1.758L389.507,99.77z"/>
		<path fill="#231F20" d="M401.423,106.924c0,3.656-2.283,5.148-4.383,5.148c-2.385,0-4.244-1.836-4.244-5.027
			c0-3.355,1.98-5.133,4.385-5.133C399.665,101.912,401.423,103.83,401.423,106.924z M394.534,107.002
			c0,1.98,0.949,3.758,2.586,3.758c1.596,0,2.566-1.797,2.566-3.797c0-1.598-0.668-3.738-2.566-3.738
			C395.241,103.225,394.534,105.268,394.534,107.002z"/>
		<path fill="#231F20" d="M414.929,97.629v11.779c0,0.809,0.039,1.816,0.08,2.465h-1.494l-0.102-1.555h-0.061
			c-0.465,0.969-1.516,1.754-2.93,1.754c-2.162,0-3.799-1.938-3.799-4.969c0-3.314,1.84-5.191,3.961-5.191
			c1.271,0,2.182,0.584,2.605,1.373h0.041v-5.656H414.929z M413.231,106.014c0-0.223-0.021-0.504-0.061-0.727
			c-0.223-1.094-1.07-2.002-2.242-2.002c-1.678,0-2.586,1.658-2.586,3.76c0,2,0.848,3.637,2.545,3.637
			c0.969,0,1.92-0.629,2.262-1.98c0.061-0.223,0.082-0.465,0.082-0.727V106.014z"/>
		<path fill="#231F20" d="M425.528,106.924c0,3.656-2.283,5.148-4.383,5.148c-2.385,0-4.244-1.836-4.244-5.027
			c0-3.355,1.98-5.133,4.385-5.133C423.771,101.912,425.528,103.83,425.528,106.924z M418.64,107.002
			c0,1.98,0.949,3.758,2.586,3.758c1.596,0,2.566-1.797,2.566-3.797c0-1.598-0.668-3.738-2.566-3.738
			C419.347,103.225,418.64,105.268,418.64,107.002z"/>
		<path fill="#231F20" d="M429.399,99.406c0,0.605-0.404,1.07-1.07,1.07c-0.605,0-1.029-0.465-1.029-1.07
			c0-0.627,0.443-1.092,1.049-1.092C428.976,98.314,429.399,98.779,429.399,99.406z M427.521,111.873v-9.779h1.697v9.779H427.521z"
			/>
		<path fill="#231F20" d="M431.841,104.699c0-1.051-0.039-1.799-0.08-2.605h1.494l0.102,1.494h0.041
			c0.465-0.869,1.494-1.676,2.93-1.676c1.332,0,3.111,0.867,3.111,3.918v6.043h-1.697v-5.82c0-1.455-0.486-2.727-1.98-2.727
			c-1.01,0-1.838,0.746-2.121,1.758c-0.061,0.223-0.102,0.523-0.102,0.828v5.961h-1.697V104.699z"/>
		<path fill="#231F20" d="M449.634,110.498c0,2.363-0.426,3.598-1.254,4.406c-0.848,0.805-2.08,1.129-3.271,1.129
			c-1.072,0-2.223-0.262-2.93-0.707l0.424-1.313c0.566,0.344,1.475,0.668,2.545,0.668c1.658,0,2.809-0.891,2.809-3.273v-1.07h-0.041
			c-0.465,0.867-1.434,1.516-2.727,1.516c-2.223,0-3.777-2.043-3.777-4.789c0-3.396,2-5.152,4-5.152
			c1.494,0,2.283,0.807,2.688,1.535h0.039l0.082-1.354h1.494c-0.041,0.686-0.08,1.514-0.08,2.787V110.498z M447.937,105.811
			c0-0.281-0.021-0.543-0.082-0.766c-0.281-0.932-0.988-1.76-2.182-1.76c-1.516,0-2.545,1.455-2.545,3.678
			c0,2.102,0.93,3.555,2.545,3.555c0.91,0,1.777-0.543,2.143-1.695c0.1-0.305,0.121-0.629,0.121-0.93V105.811z"/>
		<path fill="#231F20" d="M456.087,97.629h1.697v5.918h0.041c0.586-1.051,1.596-1.635,2.949-1.635c2.162,0,3.697,1.939,3.697,4.969
			c0,3.496-1.98,5.191-3.961,5.191c-1.313,0-2.262-0.563-2.889-1.715h-0.061l-0.08,1.516h-1.475c0.039-0.648,0.08-1.656,0.08-2.465
			V97.629z M457.784,108.115c0,0.203,0.02,0.422,0.061,0.625c0.344,1.293,1.293,1.961,2.322,1.961c1.678,0,2.586-1.555,2.586-3.758
			c0-1.961-0.848-3.658-2.564-3.658c-1.051,0-2.041,0.869-2.324,2.061c-0.039,0.203-0.08,0.445-0.08,0.707V108.115z"/>
		<path fill="#231F20" d="M473.917,109.205c0,1.031,0.041,1.898,0.082,2.668h-1.496l-0.102-1.414h-0.039
			c-0.404,0.688-1.354,1.613-2.889,1.613c-1.598,0-3.072-0.988-3.072-4.121v-5.857h1.697v5.576c0,1.758,0.484,2.988,1.92,2.988
			c1.111,0,1.818-0.848,2.061-1.535c0.08-0.262,0.141-0.563,0.141-0.906v-6.123h1.697V109.205z"/>
		<path fill="#231F20" d="M476.294,110.115c0.465,0.301,1.313,0.645,2.121,0.645c1.172,0,1.758-0.605,1.758-1.434
			s-0.445-1.293-1.656-1.84c-1.617-0.684-2.404-1.613-2.404-2.768c0-1.574,1.252-2.807,3.172-2.807c0.93,0,1.697,0.262,2.201,0.564
			l-0.424,1.252c-0.385-0.242-1.01-0.523-1.799-0.523c-0.988,0-1.514,0.605-1.514,1.313c0,0.75,0.484,1.113,1.656,1.656
			c1.516,0.668,2.404,1.535,2.404,2.949c0,1.801-1.334,2.93-3.436,2.93c-0.969,0-1.898-0.262-2.504-0.645L476.294,110.115z"/>
		<path fill="#231F20" d="M485.683,99.406c0,0.605-0.404,1.07-1.07,1.07c-0.605,0-1.029-0.465-1.029-1.07
			c0-0.627,0.443-1.092,1.049-1.092C485.259,98.314,485.683,98.779,485.683,99.406z M483.804,111.873v-9.779h1.697v9.779H483.804z"
			/>
		<path fill="#231F20" d="M488.124,104.699c0-1.051-0.039-1.799-0.08-2.605h1.494l0.102,1.494h0.041
			c0.465-0.869,1.494-1.676,2.93-1.676c1.332,0,3.111,0.867,3.111,3.918v6.043h-1.697v-5.82c0-1.455-0.484-2.727-1.98-2.727
			c-1.01,0-1.838,0.746-2.121,1.758c-0.061,0.223-0.102,0.523-0.102,0.828v5.961h-1.697V104.699z"/>
		<path fill="#231F20" d="M499.331,107.244c0.02,2.586,1.453,3.477,3.029,3.477c1.092,0,1.818-0.203,2.385-0.465l0.283,1.23
			c-0.586,0.285-1.598,0.566-2.91,0.566c-2.809,0-4.445-1.957-4.445-4.93c0-3.01,1.637-5.211,4.223-5.211
			c2.828,0,3.637,2.586,3.637,4.484c0,0.383-0.02,0.648-0.061,0.848H499.331z M503.896,106.014c0.021-1.375-0.525-2.85-2.162-2.85
			c-1.574,0-2.262,1.596-2.383,2.85H503.896z"/>
		<path fill="#231F20" d="M507.243,110.115c0.465,0.301,1.313,0.645,2.121,0.645c1.172,0,1.758-0.605,1.758-1.434
			s-0.445-1.293-1.656-1.84c-1.617-0.684-2.404-1.613-2.404-2.768c0-1.574,1.252-2.807,3.172-2.807c0.93,0,1.697,0.262,2.201,0.564
			l-0.424,1.252c-0.385-0.242-1.01-0.523-1.799-0.523c-0.988,0-1.514,0.605-1.514,1.313c0,0.75,0.484,1.113,1.656,1.656
			c1.516,0.668,2.404,1.535,2.404,2.949c0,1.801-1.334,2.93-3.436,2.93c-0.969,0-1.898-0.262-2.504-0.645L507.243,110.115z"/>
		<path fill="#231F20" d="M514.491,110.115c0.465,0.301,1.313,0.645,2.121,0.645c1.172,0,1.758-0.605,1.758-1.434
			s-0.445-1.293-1.656-1.84c-1.617-0.684-2.404-1.613-2.404-2.768c0-1.574,1.252-2.807,3.172-2.807c0.93,0,1.697,0.262,2.201,0.564
			l-0.424,1.252c-0.383-0.242-1.01-0.523-1.799-0.523c-0.988,0-1.514,0.605-1.514,1.313c0,0.75,0.484,1.113,1.656,1.656
			c1.516,0.668,2.404,1.535,2.404,2.949c0,1.801-1.334,2.93-3.436,2.93c-0.969,0-1.898-0.262-2.504-0.645L514.491,110.115z"/>
		<path fill="#231F20" d="M527.735,99.406c0,0.605-0.404,1.07-1.07,1.07c-0.605,0-1.029-0.465-1.029-1.07
			c0-0.627,0.443-1.092,1.049-1.092C527.312,98.314,527.735,98.779,527.735,99.406z M525.856,111.873v-9.779h1.697v9.779H525.856z"
			/>
		<path fill="#231F20" d="M530.177,104.699c0-1.051-0.039-1.799-0.08-2.605h1.494l0.102,1.494h0.041
			c0.465-0.869,1.494-1.676,2.93-1.676c1.332,0,3.111,0.867,3.111,3.918v6.043h-1.697v-5.82c0-1.455-0.486-2.727-1.98-2.727
			c-1.01,0-1.838,0.746-2.121,1.758c-0.061,0.223-0.102,0.523-0.102,0.828v5.961h-1.697V104.699z"/>
		<path fill="#231F20" d="M552.733,111.486c-0.566,0.305-1.676,0.566-3.092,0.566c-3.494,0-6.08-2.344-6.08-6.848
			c0-4.607,2.828-7.133,6.424-7.133c1.436,0,2.365,0.303,2.768,0.525l-0.402,1.395c-0.566-0.283-1.314-0.484-2.324-0.484
			c-2.666,0-4.666,1.857-4.666,5.596c0,3.598,1.797,5.496,4.605,5.496c0.93,0,1.859-0.203,2.445-0.484L552.733,111.486z"/>
		<path fill="#231F20" d="M560.767,109.568c0,0.809,0.021,1.637,0.143,2.305h-1.535l-0.143-1.172h-0.061
			c-0.504,0.746-1.434,1.371-2.688,1.371c-1.756,0-2.768-1.313-2.768-2.805c0-2.387,2.041-3.617,5.354-3.598v-0.242
			c0-0.951-0.262-2.244-2.02-2.223c-0.828,0-1.656,0.242-2.262,0.646l-0.385-1.152c0.688-0.445,1.777-0.787,2.93-0.787
			c2.666,0,3.434,1.816,3.434,3.84V109.568z M559.11,106.861c-1.596-0.02-3.697,0.262-3.697,2.223c0,1.191,0.729,1.695,1.516,1.695
			c1.111,0,1.859-0.707,2.102-1.574c0.061-0.18,0.08-0.383,0.08-0.566V106.861z"/>
		<path fill="#231F20" d="M563.325,104.699c0-1.051-0.041-1.799-0.08-2.605h1.494l0.08,1.475h0.041
			c0.506-0.889,1.375-1.656,2.828-1.656c1.193,0,2.143,0.686,2.547,1.816h0.039c0.283-0.523,0.668-0.949,1.051-1.232
			c0.525-0.383,1.111-0.584,1.898-0.584c1.314,0,2.971,0.867,2.971,4v5.961h-1.678v-5.699c0-1.697-0.545-2.848-1.898-2.848
			c-0.908,0-1.615,0.666-1.898,1.555c-0.082,0.242-0.121,0.566-0.121,0.891v6.102h-1.678v-6.02c0-1.416-0.545-2.527-1.818-2.527
			c-0.969,0-1.736,0.768-1.979,1.719c-0.082,0.242-0.121,0.543-0.121,0.848v5.98h-1.678V104.699z"/>
		<path fill="#231F20" d="M578.769,97.629h1.697v5.918h0.041c0.586-1.051,1.596-1.635,2.949-1.635c2.162,0,3.697,1.939,3.697,4.969
			c0,3.496-1.98,5.191-3.961,5.191c-1.313,0-2.262-0.563-2.889-1.715h-0.061l-0.08,1.516h-1.475c0.039-0.648,0.08-1.656,0.08-2.465
			V97.629z M580.466,108.115c0,0.203,0.02,0.422,0.061,0.625c0.344,1.293,1.293,1.961,2.322,1.961c1.678,0,2.586-1.555,2.586-3.758
			c0-1.961-0.848-3.658-2.564-3.658c-1.051,0-2.041,0.869-2.324,2.061c-0.039,0.203-0.08,0.445-0.08,0.707V108.115z"/>
		<path fill="#231F20" d="M597.126,106.924c0,3.656-2.283,5.148-4.383,5.148c-2.385,0-4.244-1.836-4.244-5.027
			c0-3.355,1.98-5.133,4.385-5.133C595.368,101.912,597.126,103.83,597.126,106.924z M590.237,107.002
			c0,1.98,0.949,3.758,2.586,3.758c1.596,0,2.566-1.797,2.566-3.797c0-1.598-0.668-3.738-2.566-3.738
			C590.944,103.225,590.237,105.268,590.237,107.002z"/>
		<path fill="#231F20" d="M606.776,97.629v11.779c0,0.809,0.039,1.816,0.08,2.465h-1.494l-0.102-1.555H605.2
			c-0.465,0.969-1.516,1.754-2.93,1.754c-2.162,0-3.799-1.938-3.799-4.969c0-3.314,1.84-5.191,3.961-5.191
			c1.271,0,2.182,0.584,2.605,1.373h0.041v-5.656H606.776z M605.079,106.014c0-0.223-0.021-0.504-0.061-0.727
			c-0.223-1.094-1.07-2.002-2.242-2.002c-1.678,0-2.586,1.658-2.586,3.76c0,2,0.848,3.637,2.545,3.637
			c0.969,0,1.92-0.629,2.262-1.98c0.061-0.223,0.082-0.465,0.082-0.727V106.014z"/>
		<path fill="#231F20" d="M611.272,99.406c0,0.605-0.404,1.07-1.07,1.07c-0.605,0-1.029-0.465-1.029-1.07
			c0-0.627,0.443-1.092,1.049-1.092C610.849,98.314,611.272,98.779,611.272,99.406z M609.394,111.873v-9.779h1.697v9.779H609.394z"
			/>
		<path fill="#231F20" d="M620.058,109.568c0,0.809,0.021,1.637,0.143,2.305h-1.535l-0.143-1.172h-0.061
			c-0.504,0.746-1.434,1.371-2.688,1.371c-1.756,0-2.768-1.313-2.768-2.805c0-2.387,2.041-3.617,5.354-3.598v-0.242
			c0-0.951-0.262-2.244-2.02-2.223c-0.828,0-1.656,0.242-2.262,0.646l-0.385-1.152c0.688-0.445,1.777-0.787,2.93-0.787
			c2.666,0,3.434,1.816,3.434,3.84V109.568z M618.401,106.861c-1.596-0.02-3.697,0.262-3.697,2.223c0,1.191,0.729,1.695,1.516,1.695
			c1.111,0,1.859-0.707,2.102-1.574c0.061-0.18,0.08-0.383,0.08-0.566V106.861z"/>
	</g>
</g>
<g>
	<g>
		<path fill="#19622F" d="M0.193,8.017c7.306-1.461,22.099-2.558,35.979-2.558c16.986,0,27.396,1.644,36.346,6.941
			c8.584,4.564,14.794,12.968,14.794,24.107c0,10.959-6.393,21.186-20.273,26.299v0.367c14.063,3.834,24.474,14.428,24.474,30.316
			c0,11.141-5.113,19.908-12.784,26.117c-8.949,7.121-23.926,11.141-48.399,11.141c-13.698,0-23.926-0.912-30.136-1.826V8.017z
			 M27.771,55.137h9.133c14.61,0,22.464-6.027,22.464-15.159c0-9.314-7.123-14.246-19.725-14.246c-6.027,0-9.498,0.367-11.872,0.731
			V55.137z M27.771,109.744c2.74,0.365,6.027,0.365,10.776,0.365c12.602,0,23.743-4.748,23.743-17.717
			c0-12.418-11.142-17.348-25.021-17.348h-9.498V109.744z"/>
		<g>
			<g>
				<path fill="#231F20" d="M92.398,130.775v-18.199l16.62-15.039c28.095-25.125,41.746-39.567,42.142-54.604
					c0-10.485-6.331-18.797-21.17-18.797c-11.079,0-20.774,5.541-27.502,10.687l-8.507-21.567C103.677,5.936,118.713,0,136.124,0
					c29.083,0,45.109,17.014,45.109,40.361c0,21.565-15.63,38.777-34.229,55.395l-11.871,9.893v0.398h48.474v24.729H92.398z"/>
			</g>
		</g>
		<path fill="#19622F" d="M190.83,8.017c7.306-1.461,22.099-2.558,35.98-2.558c16.986,0,27.395,1.644,36.346,6.941
			c8.583,4.564,14.794,12.968,14.794,24.107c0,10.959-6.394,21.186-20.273,26.299v0.367c14.063,3.834,24.472,14.428,24.472,30.316
			c0,11.141-5.112,19.908-12.782,26.117c-8.95,7.121-23.927,11.141-48.4,11.141c-13.698,0-23.926-0.912-30.136-1.826V8.017z
			 M218.408,55.137h9.133c14.611,0,22.465-6.027,22.465-15.159c0-9.314-7.123-14.246-19.726-14.246
			c-6.027,0-9.498,0.367-11.872,0.731V55.137z M218.408,109.744c2.739,0.365,6.027,0.365,10.776,0.365
			c12.603,0,23.742-4.748,23.742-17.717c0-12.418-11.14-17.348-25.021-17.348h-9.497V109.744z"/>
		<rect x="249.561" y="98.387" fill="none" width="6.763" height="0"/>
	</g>
	<g>
		<path opacity="0.7" fill="#9EA0A3" d="M0,137.854c1.245-0.297,3.246-0.492,5.214-0.492c2.854,0,4.69,0.492,6.035,1.609
			c1.147,0.85,1.87,2.162,1.87,3.9c0,2.164-1.443,4.035-3.739,4.854v0.1c2.1,0.492,4.559,2.23,4.559,5.51
			c0,1.902-0.755,3.379-1.901,4.426c-1.509,1.412-4.002,2.066-7.609,2.066c-1.968,0-3.477-0.129-4.428-0.262V137.854z
			 M2.854,146.906h2.591c2.983,0,4.756-1.607,4.756-3.74c0-2.559-1.935-3.609-4.821-3.609c-1.313,0-2.066,0.102-2.525,0.199V146.906
			z M2.854,157.469c0.59,0.096,1.377,0.129,2.394,0.129c2.952,0,5.674-1.084,5.674-4.297c0-2.984-2.59-4.264-5.707-4.264h-2.36
			V157.469z"/>
		<path opacity="0.7" fill="#9EA0A3" d="M20.63,137.525v13.119c0,4.92,2.197,7.02,5.148,7.02c3.248,0,5.379-2.164,5.379-7.02
			v-13.119h2.887v12.922c0,6.789-3.574,9.545-8.363,9.545c-4.526,0-7.937-2.559-7.937-9.447v-13.02H20.63z"/>
		<path opacity="0.7" fill="#9EA0A3" d="M38.636,156.154c1.279,0.818,3.115,1.443,5.083,1.443c2.92,0,4.625-1.541,4.625-3.771
			c0-2.033-1.182-3.248-4.165-4.361c-3.608-1.313-5.839-3.217-5.839-6.299c0-3.443,2.854-6,7.15-6c2.229,0,3.902,0.521,4.854,1.08
			l-0.787,2.328c-0.688-0.426-2.165-1.049-4.165-1.049c-3.018,0-4.167,1.803-4.167,3.313c0,2.066,1.347,3.082,4.396,4.266
			c3.739,1.441,5.608,3.244,5.608,6.494c0,3.408-2.493,6.395-7.708,6.395c-2.131,0-4.459-0.656-5.641-1.443L38.636,156.154z"/>
		<path opacity="0.7" fill="#9EA0A3" d="M58.28,139.295c0,0.984-0.688,1.771-1.835,1.771c-1.05,0-1.739-0.787-1.739-1.771
			c0-0.982,0.722-1.803,1.805-1.803C57.56,137.492,58.28,138.279,58.28,139.295z M55.066,159.631v-15.873h2.887v15.873H55.066z"/>
		<path opacity="0.7" fill="#9EA0A3" d="M62.841,159.631v-22.105h3.147l7.051,11.184c1.608,2.59,2.921,4.918,3.938,7.184
			l0.098-0.035c-0.263-2.951-0.329-5.639-0.329-9.084v-9.248h2.691v22.105h-2.888l-7.019-11.217
			c-1.54-2.459-3.017-4.984-4.101-7.381l-0.098,0.033c0.165,2.787,0.198,5.445,0.198,9.119v9.445H62.841z"/>
		<path opacity="0.7" fill="#9EA0A3" d="M95.835,149.266h-8.56v7.971h9.576v2.395H84.389v-22.105h11.971v2.395h-9.084v6.986h8.56
			V149.266z"/>
		<path opacity="0.7" fill="#9EA0A3" d="M100.196,156.154c1.278,0.818,3.116,1.443,5.084,1.443c2.919,0,4.624-1.541,4.624-3.771
			c0-2.033-1.18-3.248-4.165-4.361c-3.608-1.313-5.838-3.217-5.838-6.299c0-3.443,2.854-6,7.15-6c2.229,0,3.902,0.521,4.854,1.08
			l-0.788,2.328c-0.688-0.426-2.163-1.049-4.165-1.049c-3.018,0-4.164,1.803-4.164,3.313c0,2.066,1.344,3.082,4.394,4.266
			c3.74,1.441,5.608,3.244,5.608,6.494c0,3.408-2.492,6.395-7.707,6.395c-2.132,0-4.459-0.656-5.641-1.443L100.196,156.154z"/>
		<path opacity="0.7" fill="#9EA0A3" d="M116.366,156.154c1.278,0.818,3.115,1.443,5.083,1.443c2.919,0,4.624-1.541,4.624-3.771
			c0-2.033-1.18-3.248-4.165-4.361c-3.608-1.313-5.838-3.217-5.838-6.299c0-3.443,2.854-6,7.15-6c2.229,0,3.901,0.521,4.854,1.08
			l-0.786,2.328c-0.689-0.426-2.165-1.049-4.166-1.049c-3.017,0-4.165,1.803-4.165,3.313c0,2.066,1.344,3.082,4.395,4.266
			c3.738,1.441,5.608,3.244,5.608,6.494c0,3.408-2.493,6.395-7.707,6.395c-2.131,0-4.461-0.656-5.642-1.443L116.366,156.154z"/>
		<path opacity="0.7" fill="#9EA0A3" d="M131.923,159.631v-3.248l2.93-2.652c5.052-4.52,7.489-7.1,7.525-9.783
			c0-1.871-1.095-3.355-3.744-3.355c-1.979,0-3.709,0.988-4.911,1.869l-1.52-3.813c1.697-1.309,4.416-2.367,7.489-2.367
			c5.229,0,8.054,3.039,8.054,7.172c0,3.885-2.754,6.959-6.11,9.926l-2.118,1.766v0.072h8.689v4.414H131.923z"/>
		<path opacity="0.7" fill="#9EA0A3" d="M153.382,137.854c1.246-0.297,3.247-0.492,5.214-0.492c2.854,0,4.69,0.492,6.035,1.609
			c1.149,0.85,1.87,2.162,1.87,3.9c0,2.164-1.444,4.035-3.738,4.854v0.1c2.099,0.492,4.559,2.23,4.559,5.51
			c0,1.902-0.756,3.379-1.902,4.426c-1.51,1.412-4.003,2.066-7.608,2.066c-1.969,0-3.477-0.129-4.429-0.262V137.854z
			 M156.235,146.906h2.591c2.984,0,4.756-1.607,4.756-3.74c0-2.559-1.936-3.609-4.821-3.609c-1.313,0-2.067,0.102-2.525,0.199
			V146.906z M156.235,157.469c0.591,0.096,1.377,0.129,2.394,0.129c2.952,0,5.674-1.084,5.674-4.297c0-2.984-2.59-4.264-5.707-4.264
			h-2.36V157.469z"/>
		<path opacity="0.7" fill="#9EA0A3" d="M174.01,137.525v13.119c0,4.92,2.198,7.02,5.15,7.02c3.247,0,5.379-2.164,5.379-7.02
			v-13.119h2.888v12.922c0,6.789-3.576,9.545-8.363,9.545c-4.527,0-7.938-2.559-7.938-9.447v-13.02H174.01z"/>
		<path opacity="0.7" fill="#9EA0A3" d="M192.017,156.154c1.28,0.818,3.117,1.443,5.084,1.443c2.92,0,4.625-1.541,4.625-3.771
			c0-2.033-1.18-3.248-4.164-4.361c-3.609-1.313-5.839-3.217-5.839-6.299c0-3.443,2.854-6,7.149-6c2.23,0,3.904,0.521,4.854,1.08
			l-0.788,2.328c-0.687-0.426-2.163-1.049-4.164-1.049c-3.019,0-4.166,1.803-4.166,3.313c0,2.066,1.345,3.082,4.396,4.266
			c3.738,1.441,5.607,3.244,5.607,6.494c0,3.408-2.492,6.395-7.708,6.395c-2.131,0-4.459-0.656-5.641-1.443L192.017,156.154z"/>
		<path opacity="0.7" fill="#9EA0A3" d="M211.663,139.295c0,0.984-0.688,1.771-1.837,1.771c-1.05,0-1.738-0.787-1.738-1.771
			c0-0.982,0.723-1.803,1.805-1.803C210.94,137.492,211.663,138.279,211.663,139.295z M208.449,159.631v-15.873h2.887v15.873
			H208.449z"/>
		<path opacity="0.7" fill="#9EA0A3" d="M216.223,159.631v-22.105h3.148l7.052,11.184c1.606,2.59,2.918,4.918,3.935,7.184
			l0.099-0.035c-0.262-2.951-0.327-5.639-0.327-9.084v-9.248h2.689v22.105h-2.887l-7.019-11.217
			c-1.542-2.459-3.018-4.984-4.099-7.381l-0.101,0.033c0.164,2.787,0.197,5.445,0.197,9.119v9.445H216.223z"/>
		<path opacity="0.7" fill="#9EA0A3" d="M249.217,149.266h-8.561v7.971h9.577v2.395h-12.462v-22.105h11.97v2.395h-9.085v6.986h8.561
			V149.266z"/>
		<path opacity="0.7" fill="#9EA0A3" d="M253.578,156.154c1.279,0.818,3.116,1.443,5.084,1.443c2.919,0,4.623-1.541,4.623-3.771
			c0-2.033-1.18-3.248-4.164-4.361c-3.606-1.313-5.839-3.217-5.839-6.299c0-3.443,2.854-6,7.151-6c2.229,0,3.902,0.521,4.853,1.08
			l-0.786,2.328c-0.689-0.426-2.164-1.049-4.164-1.049c-3.019,0-4.167,1.803-4.167,3.313c0,2.066,1.347,3.082,4.394,4.266
			c3.74,1.441,5.609,3.244,5.609,6.494c0,3.408-2.492,6.395-7.706,6.395c-2.132,0-4.46-0.656-5.641-1.443L253.578,156.154z"/>
		<path opacity="0.7" fill="#9EA0A3" d="M269.747,156.154c1.279,0.818,3.117,1.443,5.085,1.443c2.919,0,4.625-1.541,4.625-3.771
			c0-2.033-1.182-3.248-4.166-4.361c-3.608-1.313-5.838-3.217-5.838-6.299c0-3.443,2.853-6,7.148-6c2.232,0,3.903,0.521,4.855,1.08
			l-0.787,2.328c-0.688-0.426-2.165-1.049-4.166-1.049c-3.017,0-4.164,1.803-4.164,3.313c0,2.066,1.344,3.082,4.395,4.266
			c3.738,1.441,5.606,3.244,5.606,6.494c0,3.408-2.491,6.395-7.707,6.395c-2.13,0-4.46-0.656-5.641-1.443L269.747,156.154z"/>
	</g>
</g>
</svg>
